<?xml version="1.0" encoding="UTF-8"?> <svg xmlns="http://www.w3.org/2000/svg" width="138.236" height="32" viewBox="0 0 138.236 32"><g fill="none" fill-rule="evenodd"><g><path fill="#2C394D" d="M92.877 0l-4.563.287v29.912c1.646.548 3.124.966 4.563 1.253V0zm26.612 14.248l.25-4.072h18.442l-.246 4.072h-6.813v17.24h-4.572v-17.24h-7.06zM71.036 26.752c2.077.663 4.736 1.162 6.44 1.162 1.95 0 3.572-.665 3.447-2.367-.124-2.828-11.3-2.411-11.3-9.557 0-4.152 3.116-6.23 8.518-6.23 2.118 0 4.569.416 6.896 1.204l-.75 3.988c-1.87-.661-4.484-1.245-6.394-1.245-1.915 0-3.534.706-3.409 2.325.126 2.785 11.299 2.493 11.299 9.597 0 4.24-3.116 6.273-8.514 6.273-2.286 0-4.78-.372-7.023-1.122l.79-4.028zm-15.42-4.448v9.183h-4.569V10.175h4.569v9.183l8.143-9.348 5.316.292-9.264 10.301 9.598 10.717-5.65.33-8.143-9.346zm-22.347-12.13h15.246l-.29 4.074H37.84v4.693h8.93l-.291 3.862-8.64-.001v4.613h10.676l-.29 4.072H33.269V10.175zm-12.376 0v17.241h10.26l-.29 4.072h-14.54V10.175h4.57zM4.569 31.488H0V10.175h14.83l-.29 4.073H4.57v5.4h8.516l-.291 4.07H4.569v7.77z"></path><path fill="#0092F6" d="M96.759 9.76c-.827 0-1.612.077-2.358.222v4.487c.69-.44 1.492-.636 2.358-.636 2.616 0 4.694 1.826 4.694 6.978 0 5.15-2.078 7.02-4.694 7.02-.866 0-1.668-.203-2.358-.647v4.497c.746.142 1.531.224 2.358.224 5.403 0 9.347-2.994 9.347-11.094 0-8.06-3.944-11.05-9.347-11.05zm16.24 21.727V14.952l-5.316 1.995v-4.445l6.188-2.326h3.699v21.311H113z"></path></g></g></svg> 